<svg width="49" height="49" viewBox="0 0 49 49" fill="none" xmlns="http://www.w3.org/2000/svg">
<rect x="7.20459" y="32" width="32.0455" height="13.8864" rx="2" fill="#E7F6E2"/>
<path d="M26.7931 39.5474H3.18268C2.91841 39.5474 2.66496 39.4424 2.47809 39.2555C2.29122 39.0687 2.18624 38.8152 2.18624 38.5509V28.4978C2.18624 28.2335 2.29122 27.9801 2.47809 27.7932C2.66496 27.6063 2.91841 27.5013 3.18268 27.5013H10.4709C10.6283 27.5013 10.7791 27.4388 10.8903 27.3276C11.0016 27.2164 11.0641 27.0655 11.0641 26.9082V24.0854C11.0641 23.1127 9.54046 22.7659 8.1146 22.7659C6.68874 22.7659 5.16465 23.1122 5.16465 24.0854V26.3156H3.18268C2.60399 26.3162 2.04918 26.5464 1.63999 26.9556C1.23079 27.3648 1.00063 27.9196 1 28.4983V38.5509C1.00063 39.1296 1.23079 39.6844 1.63999 40.0936C2.04918 40.5028 2.60399 40.733 3.18268 40.7336H26.7931C26.9505 40.7336 27.1013 40.6711 27.2125 40.5599C27.3238 40.4487 27.3863 40.2978 27.3863 40.1405C27.3863 39.9832 27.3238 39.8323 27.2125 39.7211C27.1013 39.6099 26.9505 39.5474 26.7931 39.5474V39.5474ZM6.3509 24.2439C6.9117 24.0236 7.51271 23.9242 8.1146 23.9521C8.71633 23.9242 9.31717 24.0236 9.87783 24.2439V26.3151H6.3509V24.2439Z" fill="#32592D"/>
<path d="M29.5724 39.5474H29.1263C28.969 39.5474 28.8182 39.6099 28.7069 39.7211C28.5957 39.8323 28.5332 39.9832 28.5332 40.1405C28.5332 40.2978 28.5957 40.4487 28.7069 40.5599C28.8182 40.6711 28.969 40.7336 29.1263 40.7336H29.5724C29.7297 40.7336 29.8805 40.6711 29.9917 40.5599C30.103 40.4487 30.1655 40.2978 30.1655 40.1405C30.1655 39.9832 30.103 39.8323 29.9917 39.7211C29.8805 39.6099 29.7297 39.5474 29.5724 39.5474V39.5474Z" fill="#32592D"/>
<path d="M33.0969 26.3151H31.9358L13.9927 20.9732C13.7395 20.8978 13.5265 20.7248 13.4008 20.4924C13.2751 20.2599 13.2468 19.9871 13.3222 19.7338L15.5998 12.0835C15.6447 11.9325 15.6277 11.7699 15.5527 11.6314C15.5155 11.5628 15.4652 11.5022 15.4046 11.453C15.344 11.4039 15.2744 11.3672 15.1996 11.345C15.0486 11.3001 14.8859 11.3171 14.7474 11.3921C14.6089 11.4672 14.5059 11.5942 14.461 11.7452L12.1835 19.395C12.1017 19.6699 12.0748 19.9582 12.1045 20.2434C12.1341 20.5286 12.2197 20.8052 12.3563 21.0574C12.4929 21.3095 12.6779 21.5323 12.9006 21.7129C13.1233 21.8935 13.3795 22.0285 13.6544 22.1101L16.4833 22.9523C15.7384 23.1459 15.1899 23.5028 15.1899 24.0854V26.3156H12.6969C12.5396 26.3156 12.3887 26.3781 12.2775 26.4893C12.1662 26.6005 12.1037 26.7514 12.1037 26.9087C12.1037 27.066 12.1662 27.2169 12.2775 27.3281C12.3887 27.4393 12.5396 27.5018 12.6969 27.5018H33.0969C33.3612 27.5018 33.6146 27.6068 33.8015 27.7937C33.9883 27.9805 34.0933 28.234 34.0933 28.4983V38.5509C34.0933 38.8152 33.9883 39.0687 33.8015 39.2555C33.6146 39.4424 33.3612 39.5474 33.0969 39.5474H31.6568C31.4995 39.5474 31.3486 39.6099 31.2374 39.7211C31.1262 39.8323 31.0637 39.9832 31.0637 40.1405C31.0637 40.2978 31.1262 40.4487 31.2374 40.5599C31.3486 40.6711 31.4995 40.7336 31.6568 40.7336H33.0969C33.6756 40.733 34.2304 40.5028 34.6396 40.0936C35.0488 39.6844 35.2789 39.1296 35.2796 38.5509V28.4978C35.2789 27.9191 35.0488 27.3643 34.6396 26.9551C34.2304 26.5459 33.6756 26.3157 33.0969 26.3151ZM27.7778 26.3151H21.0874V24.3222L27.7778 26.3151ZM16.3766 26.3151V24.2439C16.9374 24.0236 17.5384 23.9242 18.1403 23.9521C18.742 23.9242 19.3429 24.0236 19.9035 24.2439V26.3151H16.3766Z" fill="#32592D"/>
<path d="M47.7365 17.879C47.6007 17.6264 47.4161 17.4033 47.1936 17.2225C46.971 17.0416 46.7147 16.9068 46.4397 16.8256L44.5417 16.26L45.178 14.1248C45.2729 13.8017 45.2211 13.3054 44.4235 12.773C43.8971 12.4416 43.3258 12.1876 42.7272 12.0185C42.133 11.8353 41.5163 11.7355 40.8947 11.722C39.9357 11.7315 39.6202 12.1182 39.5239 12.4413L38.8876 14.5765L34.9327 13.3993L35.569 11.2641C35.6639 10.9409 35.6121 10.4446 34.8145 9.91223C34.2883 9.58077 33.7172 9.32669 33.1187 9.15778C32.5243 8.97565 31.9077 8.87602 31.2862 8.8617C30.3272 8.87119 30.0117 9.2579 29.9153 9.58103L29.279 11.7163L28.0359 11.3462C27.8848 11.3013 27.7222 11.3183 27.5837 11.3933C27.4452 11.4684 27.3422 11.5954 27.2973 11.7464C27.2524 11.8974 27.2694 12.0601 27.3445 12.1986C27.4195 12.3371 27.5465 12.4401 27.6975 12.485L46.1032 17.9644C46.3565 18.0399 46.5694 18.2129 46.6951 18.4453C46.8209 18.6777 46.8491 18.9506 46.7737 19.2038L43.903 28.838C43.827 29.0909 43.6539 29.3034 43.4217 29.429C43.1894 29.5547 42.9169 29.5832 42.6636 29.5085L37.4062 27.9445C37.2552 27.8997 37.0925 27.9166 36.954 27.9917C36.8155 28.0667 36.7125 28.1937 36.6676 28.3448C36.6228 28.4958 36.6397 28.6584 36.7148 28.7969C36.7899 28.9354 36.9169 29.0384 37.0679 29.0833L42.3234 30.6491C42.5983 30.7309 42.8865 30.7578 43.1718 30.7281C43.457 30.6985 43.7336 30.6129 43.9857 30.4763C44.2379 30.3397 44.4606 30.1547 44.6413 29.932C44.8219 29.7093 44.9569 29.4531 45.0385 29.1782L47.9073 19.5421C47.9903 19.2674 48.0179 18.9789 47.9886 18.6935C47.9593 18.408 47.8736 18.1311 47.7365 17.879V17.879ZM40.6138 12.9281C41.8206 12.8822 43.0089 13.236 43.9941 13.9345L43.4029 15.9194L40.023 14.9129L40.6138 12.9281ZM31.0053 10.0698C31.6055 10.0189 32.2097 10.0953 32.7784 10.2937C33.3632 10.4389 33.9107 10.7061 34.3851 11.0776L33.7939 13.061L30.414 12.0546L31.0053 10.0698Z" fill="#32592D"/>
<path d="M15.4536 10.4968C15.6043 10.5416 15.7667 10.5248 15.9051 10.4499C16.0434 10.3751 16.1464 10.2484 16.1914 10.0978C16.2675 9.84515 16.4405 9.6329 16.6725 9.5073C16.9045 9.3817 17.1767 9.35294 17.4299 9.42729L25.8759 11.9421C26.0269 11.987 26.1895 11.97 26.328 11.895C26.4666 11.8199 26.5696 11.6929 26.6144 11.5419C26.6593 11.3909 26.6423 11.2282 26.5673 11.0897C26.4922 10.9512 26.3652 10.8482 26.2142 10.8033L25.3217 10.5376L25.958 8.40238C26.0529 8.07925 26.0011 7.58292 25.2035 7.05054C24.1484 6.40752 22.946 6.04582 21.7112 6H21.6752C20.7162 6.00949 20.4002 6.39621 20.3039 6.71934L19.6681 8.85457L17.7701 8.28897C17.215 8.12482 16.6174 8.18748 16.1085 8.46322C15.5995 8.73896 15.2207 9.20527 15.055 9.75992C15.0103 9.91049 15.0272 10.0726 15.1019 10.2108C15.1767 10.3489 15.3031 10.4518 15.4536 10.4968ZM21.3962 7.20902C21.9964 7.15814 22.6006 7.23446 23.1694 7.43298C23.7542 7.57778 24.3018 7.84441 24.7765 8.21543L24.1853 10.2002L20.8054 9.19384L21.3962 7.20902Z" fill="#32592D"/>
</svg>
