<?xml version="1.0" encoding="UTF-8" standalone="no"?>
<!-- Created with Inkscape (http://www.inkscape.org/) -->

<svg
   xmlns:dc="http://purl.org/dc/elements/1.1/"
   xmlns:cc="http://creativecommons.org/ns#"
   xmlns:rdf="http://www.w3.org/1999/02/22-rdf-syntax-ns#"
   xmlns:svg="http://www.w3.org/2000/svg"
   xmlns="http://www.w3.org/2000/svg"
   xmlns:sodipodi="http://sodipodi.sourceforge.net/DTD/sodipodi-0.dtd"
   xmlns:inkscape="http://www.inkscape.org/namespaces/inkscape"
   width="210mm"
   height="297mm"
   viewBox="0 0 210 297"
   version="1.1"
   id="svg3760"
   inkscape:version="0.92.5 (2060ec1f9f, 2020-04-08)"
   sodipodi:docname="logo2.svg">
  <defs
     id="defs3754" />
  <sodipodi:namedview
     id="base"
     pagecolor="#ffffff"
     bordercolor="#666666"
     borderopacity="1.0"
     inkscape:pageopacity="0.0"
     inkscape:pageshadow="2"
     inkscape:zoom="0.49497475"
     inkscape:cx="125.82511"
     inkscape:cy="507.07062"
     inkscape:document-units="mm"
     inkscape:current-layer="layer1"
     showgrid="false"
     inkscape:window-width="1848"
     inkscape:window-height="1016"
     inkscape:window-x="72"
     inkscape:window-y="27"
     inkscape:window-maximized="1" />
  <metadata
     id="metadata3757">
    <rdf:RDF>
      <cc:Work
         rdf:about="">
        <dc:format>image/svg+xml</dc:format>
        <dc:type
           rdf:resource="http://purl.org/dc/dcmitype/StillImage" />
        <dc:title></dc:title>
      </cc:Work>
    </rdf:RDF>
  </metadata>
  <g
     inkscape:label="Layer 1"
     inkscape:groupmode="layer"
     id="layer1">
    <g
       style="fill:#000000"
       id="SvgjsG3203"
       featurekey="symbolFeature-0"
       transform="matrix(0.67565275,0,0,0.67565275,122.04738,90.324883)">
      <g
         style="display:none"
         display="none"
         id="g5">
        <rect
           style="display:inline;fill:#000000;stroke:#000000;stroke-miterlimit:10"
           x="5"
           y="5"
           display="inline"
           stroke-miterlimit="10"
           width="90"
           height="90"
           id="rect3" />
      </g>
      <g
         style="display:none"
         display="none"
         id="g23">
        <g
           style="display:inline"
           display="inline"
           id="g19">
          <path
             style="fill:none"
             inkscape:connector-curvature="0"
             d="M 38.912,77.875 C 42.343,79.241 46.082,80 50,80 c 3.918,0 7.657,-0.759 11.088,-2.125 z"
             id="path13" />
          <path
             style="fill:none"
             inkscape:connector-curvature="0"
             d="m 50,20 c -16.569,0 -30,13.431 -30,30 0,8.252 3.334,15.725 8.726,21.149 L 71.149,28.726 C 65.725,23.334 58.252,20 50,20 Z"
             id="path15" />
          <path
             inkscape:connector-curvature="0"
             d="M 80,50 C 80,41.684 76.615,34.16 71.149,28.726 L 28.726,71.149 c 2.874,2.891 6.335,5.192 10.187,6.726 H 61.088 C 72.166,73.464 80,62.651 80,50 Z"
             id="path17" />
        </g>
        <circle
           style="display:inline;fill:none;stroke:#000000;stroke-width:8.50389957;stroke-miterlimit:10"
           display="inline"
           stroke-miterlimit="10"
           cx="50"
           cy="50"
           r="30"
           id="circle21" />
      </g>
      <g
         style="display:none"
         display="none"
         id="g33">
        <polygon
           style="display:inline"
           display="inline"
           points="68.94,30.935 30.901,68.974 46.319,77.875 53.681,77.875 75.981,65 75.981,35 "
           id="polygon25" />
        <polygon
           style="display:inline;fill:none;stroke:#000000;stroke-width:8.50389957;stroke-miterlimit:10"
           display="inline"
           stroke-miterlimit="10"
           points="24.019,35 50,20 75.981,35 75.981,65 50,80 24.019,65 "
           id="polygon27" />
        <polygon
           points="68.974,30.901 30.935,68.94 35,75.981 65,75.981 80,50 "
           id="polygon29" />
        <polygon
           style="fill:none;stroke:#000000;stroke-width:8.50389957;stroke-miterlimit:10"
           stroke-miterlimit="10"
           points="20,50 35,24.019 65,24.019 80,50 65,75.981 35,75.981 "
           id="polygon31" />
      </g>
      <g
         style="display:none"
         display="none"
         id="g39">
        <polygon
           style="display:inline"
           display="inline"
           points="22.894,75.981 80,75.981 59.098,39.777 "
           id="polygon35" />
        <polygon
           style="display:inline;fill:none;stroke:#000000;stroke-width:8.50389957;stroke-miterlimit:10"
           display="inline"
           stroke-miterlimit="10"
           points="80,75.981 20,75.981 50,24.019 "
           id="polygon37" />
      </g>
    </g>
    <g
       id="g3859"
       inkscape:export-xdpi="96"
       inkscape:export-ydpi="96">
      <g
         transform="matrix(0.67565275,0,0,0.67565275,120.44376,67.339705)"
         id="g11"
         style="fill:#000000">
        <rect
           id="rect7"
           height="60"
           width="60"
           stroke-miterlimit="10"
           y="20"
           x="20"
           style="fill:none;stroke:#000000;stroke-width:8.50389957;stroke-miterlimit:10" />
        <polygon
           id="polygon9"
           points="82,17.875 22,77.875 82,77.875 " />
      </g>
      <g
         transform="matrix(3.4605412,0,0,3.4605412,32.297875,78.384041)"
         featurekey="nameFeature-0"
         id="SvgjsG3204"
         style="fill:#000000">
        <path
           id="path42"
           d="M 33.12,40 H 27 V 29.04 c 0,-2.16 0,-3.4 -0.56,-4.28 -0.48,-0.8 -1.44,-1.2 -2.32,-1.2 -0.52,0 -1.96,0.12 -2.72,1.48 -0.48,0.84 -0.44,1.72 -0.44,3.6 V 40 H 14.84 V 27.6 c 0,-2 -0.28,-2.88 -1.2,-3.48 -0.52,-0.36 -1.16,-0.52 -1.8,-0.52 -0.28,0 -1.08,0 -1.76,0.52 -1.28,0.96 -1.32,2.6 -1.32,3.96 V 40 H 2.68 V 19.12 h 6.08 l 0.04,2.16 c 0.36,-0.44 0.6,-0.72 1.04,-1.08 0.8,-0.64 2.32,-1.64 4.84,-1.64 0.48,0 2.64,0.04 4.16,1 0.64,0.4 1.16,0.92 1.68,1.44 0.76,-0.64 1.04,-0.84 1.48,-1.12 0.72,-0.44 2.44,-1.32 4.72,-1.32 0.72,0 3.64,0.04 5.36,2.28 1,1.24 1.04,2.56 1.04,5.56 z"
           inkscape:connector-curvature="0" />
      </g>
    </g>
  </g>
</svg>
